# xmcd
#
# Track frame offsets:
#	150
#	16905
#	30090
#	42022
#	57732
#	76574
#	92491
#	107983
#	125254
#	139324
#	152422
#	168693
#	191871
#	205217
#	220231
#
# Disc length: 3159 seconds
#
# Revision: 2
# Processed by: cddbd v1.5.2PL0 Copyright (c) Steve Scherf et al.
# Submitted via: EZCDAudioConverter 7.1.8.1
#
DISCID=c30c550f
DTITLE=Hilary Duff - 4Ever Hilary
DYEAR=2006
DGENRE=Pop
TTITLE0=Fly
TTITLE1=Weird
TTITLE2=Our Lips Are Sealed (feat. Haylie Duff)
TTITLE3=Shine
TTITLE4=Someone's Watching Over Me
TTITLE5=Anywhere But Here
TTITLE6=Who's That Girl (Acoustion Version)
TTITLE7=Jericho (Remix 2005)
TTITLE8=Sweet Sixteen
TTITLE9=Supergirl
TTITLE10=Come Clean (Joe Bermudez and Josh Harris Main Mix)
TTITLE11=Wake Up (DJ Kaya Long-T Remix)
TTITLE12=Beat Of My Heart (Sugarcookie Remix)
TTITLE13=So Yesterday (Radio Remix)
TTITLE14=Fly (AOL Session)
EXTD=
EXTT0=
EXTT1=
EXTT2=
EXTT3=
EXTT4=
EXTT5=
EXTT6=
EXTT7=
EXTT8=
EXTT9=
EXTT10=
EXTT11=
EXTT12=
EXTT13=
EXTT14=
PLAYORDER=
